<svg width="199" height="75" viewBox="0 0 199 75" fill="none" xmlns="http://www.w3.org/2000/svg">
<g clip-path="url(#clip0_16_80)">
<rect width="199" height="75" fill="#EDE6DB"/>
<mask id="mask0_16_80" style="mask-type:alpha" maskUnits="userSpaceOnUse" x="4" y="8" width="93" height="58">
<path d="M37.1976 66L4 8H38V35L90 35.5V56C90 63 95.5 66 97 66H37.1976Z" fill="#D9D9D9"/>
</mask>
<g mask="url(#mask0_16_80)">
<rect x="4" y="8" width="104" height="11.6" fill="#72C5D9"/>
<rect x="4" y="19.6001" width="104" height="11.6" fill="#4A9CC4"/>
<rect x="4" y="31.2" width="104" height="11.6" fill="#EFC94D"/>
<rect x="4" y="42.8" width="104" height="11.6" fill="#F09343"/>
<rect x="4" y="54.3999" width="104" height="11.6" fill="#E15045"/>
</g>
<rect x="35.5" y="-0.5" width="70" height="38" fill="#EDE6DB"/>
<mask id="path-8-outside-1_16_80" maskUnits="userSpaceOnUse" x="36" y="5" width="158" height="64" fill="black">
<rect fill="white" x="36" y="5" width="158" height="64"/>
<path d="M39 33.9622V8H54.9628C56.3734 8 57.648 8.29671 58.7864 8.89013C59.9496 9.48356 60.8776 10.3119 61.5706 11.3751C62.2635 12.4383 62.61 13.687 62.61 15.1211C62.61 15.8381 62.4739 16.5304 62.2017 17.198C61.9542 17.8656 61.5953 18.4838 61.1251 19.0525C60.6796 19.5965 60.1476 20.0786 59.5288 20.499C60.2713 20.9193 60.9148 21.4509 61.4592 22.0938C62.0284 22.7119 62.4615 23.4166 62.7585 24.2078C63.0802 24.9744 63.2411 25.7903 63.2411 26.6557C63.2411 28.1145 62.8823 29.4003 62.1646 30.513C61.4716 31.6009 60.5312 32.4539 59.3432 33.0721C58.1553 33.6655 56.8436 33.9622 55.4082 33.9622H39ZM47.0185 27.8796H53.5892C53.9852 27.8796 54.3193 27.7931 54.5915 27.62C54.8638 27.4469 55.0741 27.212 55.2226 26.9153C55.3959 26.5939 55.4825 26.2477 55.4825 25.8769C55.4825 25.506 55.3959 25.1845 55.2226 24.9125C55.0741 24.6158 54.8638 24.3809 54.5915 24.2078C54.3193 24.0348 53.9852 23.9482 53.5892 23.9482H47.0185V27.8796ZM47.0185 18.014H52.6611C53.0324 18.014 53.3541 17.9275 53.6263 17.7544C53.8986 17.5566 54.1089 17.3217 54.2574 17.0497C54.4059 16.753 54.4802 16.4439 54.4802 16.1225C54.4802 15.7763 54.4059 15.4672 54.2574 15.1952C54.1089 14.9233 53.8986 14.7007 53.6263 14.5276C53.3789 14.3546 53.0571 14.268 52.6611 14.268H47.0185V18.014Z"/>
<path d="M65.0819 33.9622V20.7215C65.0819 18.8918 65.614 17.4453 66.6782 16.3821C67.7423 15.3189 69.2272 14.7873 71.1329 14.7873H77.2952V20.1652H73.6201C73.1994 20.1652 72.8529 20.3012 72.5807 20.5731C72.3332 20.8204 72.2094 21.1542 72.2094 21.5745V33.9622H65.0819Z"/>
<path d="M88.7583 34.4073C86.8279 34.4073 85.0584 33.987 83.4498 33.1463C81.8659 32.3056 80.5913 31.1311 79.6261 29.6228C78.6857 28.0898 78.2155 26.3343 78.2155 24.3562C78.2155 22.3781 78.6857 20.635 79.6261 19.1267C80.5913 17.6184 81.8782 16.4439 83.4869 15.6032C85.0955 14.7378 86.8651 14.3051 88.7954 14.3051C90.7258 14.3051 92.483 14.7378 94.0669 15.6032C95.6508 16.4439 96.9129 17.6184 97.8534 19.1267C98.7938 20.635 99.264 22.3781 99.264 24.3562C99.264 26.3343 98.7938 28.0898 97.8534 29.6228C96.9129 31.1311 95.6384 32.3056 94.0297 33.1463C92.4458 33.987 90.6887 34.4073 88.7583 34.4073ZM88.7583 28.028C89.4265 28.028 90.0205 27.8673 90.5402 27.5459C91.0599 27.2244 91.4559 26.7917 91.7281 26.2477C92.0251 25.679 92.1736 25.0362 92.1736 24.3191C92.1736 23.6021 92.0251 22.9716 91.7281 22.4276C91.4559 21.8836 91.0599 21.4509 90.5402 21.1295C90.0205 20.808 89.4265 20.6473 88.7583 20.6473C88.0901 20.6473 87.4962 20.808 86.9764 21.1295C86.4567 21.4509 86.0484 21.8836 85.7514 22.4276C85.4544 22.9716 85.3059 23.6021 85.3059 24.3191C85.3059 25.0362 85.4544 25.679 85.7514 26.2477C86.0484 26.7917 86.4567 27.2244 86.9764 27.5459C87.4962 27.8673 88.0901 28.028 88.7583 28.028Z"/>
<path d="M109.432 34.4444C108.046 34.4444 106.722 34.1724 105.46 33.6284C104.223 33.0597 103.208 32.2314 102.416 31.1435C101.649 30.0308 101.265 28.6462 101.265 26.9895V14.7502H108.356V27.6571C108.356 27.8796 108.405 28.0775 108.504 28.2505C108.603 28.3989 108.739 28.5225 108.912 28.6214C109.086 28.7203 109.259 28.7698 109.432 28.7698C109.63 28.7698 109.803 28.7203 109.952 28.6214C110.1 28.5225 110.224 28.3989 110.323 28.2505C110.422 28.0775 110.472 27.8796 110.472 27.6571V21.76C110.472 20.1281 110.855 18.7558 111.622 17.6431C112.414 16.5304 113.429 15.7021 114.666 15.1582C115.929 14.5895 117.265 14.3051 118.676 14.3051C120.111 14.3051 121.448 14.5895 122.685 15.1582C123.922 15.7021 124.925 16.5304 125.692 17.6431C126.484 18.7558 126.88 20.1281 126.88 21.76V27.6571C126.88 27.8796 126.929 28.0775 127.028 28.2505C127.127 28.3989 127.263 28.5225 127.437 28.6214C127.61 28.7203 127.783 28.7698 127.956 28.7698C128.154 28.7698 128.328 28.7203 128.476 28.6214C128.649 28.5225 128.785 28.3989 128.884 28.2505C128.983 28.0775 129.033 27.8796 129.033 27.6571V14.7502H136.161V26.9895C136.161 28.6462 135.765 30.0308 134.973 31.1435C134.205 32.2314 133.191 33.0597 131.929 33.6284C130.691 34.1724 129.367 34.4444 127.956 34.4444C126.57 34.4444 125.246 34.1724 123.984 33.6284C122.747 33.0597 121.732 32.2314 120.94 31.1435C120.148 30.0308 119.752 28.6462 119.752 26.9895V21.0924C119.752 20.8451 119.703 20.6473 119.604 20.499C119.505 20.3259 119.369 20.1899 119.195 20.091C119.047 19.9921 118.874 19.9426 118.676 19.9426C118.502 19.9426 118.329 19.9921 118.156 20.091C117.983 20.1899 117.847 20.3259 117.748 20.499C117.649 20.6473 117.599 20.8451 117.599 21.0924V26.9895C117.599 28.6462 117.203 30.0308 116.411 31.1435C115.644 32.2314 114.629 33.0597 113.367 33.6284C112.13 34.1724 110.818 34.4444 109.432 34.4444Z"/>
<path d="M138.588 33.9622V28.9181H147.572C147.77 28.9181 147.931 28.8811 148.054 28.8069C148.178 28.708 148.277 28.5967 148.351 28.4731C148.426 28.3247 148.463 28.1764 148.463 28.028C148.463 27.8796 148.426 27.7437 148.351 27.62C148.277 27.4717 148.178 27.3604 148.054 27.2862C147.931 27.212 147.77 27.175 147.572 27.175H144.676C143.414 27.175 142.263 26.9648 141.224 26.5444C140.184 26.0994 139.355 25.4194 138.736 24.5046C138.143 23.565 137.846 22.3658 137.846 20.9069C137.846 19.7695 138.118 18.7434 138.662 17.8286C139.231 16.889 139.999 16.1472 140.964 15.6032C141.929 15.0345 142.993 14.7502 144.156 14.7502H153.92V19.7943H145.827C145.579 19.7943 145.369 19.8808 145.196 20.0539C145.047 20.227 144.973 20.4248 144.973 20.6473C144.973 20.8698 145.047 21.0677 145.196 21.2407C145.369 21.4138 145.579 21.5004 145.827 21.5004H148.5C149.935 21.5004 151.173 21.7229 152.212 22.168C153.276 22.5883 154.093 23.2559 154.662 24.1708C155.231 25.0856 155.516 26.2725 155.516 27.7313C155.516 28.8687 155.219 29.9072 154.625 30.8468C154.056 31.7863 153.289 32.5405 152.323 33.1092C151.358 33.6779 150.269 33.9622 149.057 33.9622H138.588Z"/>
<path d="M167.97 33.9622C165.817 33.9622 163.899 33.5913 162.216 32.8496C160.533 32.1078 159.197 31.0322 158.207 29.6228C157.242 28.1887 156.759 26.4455 156.759 24.3933C156.759 22.1432 157.242 20.2764 158.207 18.7929C159.172 17.3093 160.422 16.1966 161.956 15.4549C163.515 14.6884 165.149 14.3051 166.856 14.3051C168.613 14.3051 170.185 14.676 171.571 15.4178C172.982 16.1348 174.095 17.1733 174.912 18.5332C175.753 19.8932 176.174 21.5251 176.174 23.429C176.174 23.8988 176.149 24.4427 176.1 25.0609C176.05 25.6543 175.976 26.1612 175.877 26.5815H164.072C164.171 27.0019 164.357 27.3604 164.629 27.6571C164.901 27.9291 165.272 28.1269 165.743 28.2505C166.213 28.3742 166.745 28.436 167.339 28.436H174.207V33.9622H167.97ZM163.738 22.6501H169.603C169.603 22.3534 169.566 22.0691 169.492 21.7971C169.418 21.5251 169.294 21.2778 169.121 21.0553C168.972 20.808 168.787 20.5979 168.564 20.4248C168.341 20.227 168.069 20.0786 167.747 19.9797C167.45 19.8808 167.116 19.8314 166.745 19.8314C166.275 19.8314 165.854 19.9055 165.483 20.0539C165.136 20.2022 164.839 20.4001 164.592 20.6473C164.344 20.8946 164.146 21.1913 163.998 21.5374C163.874 21.8836 163.788 22.2545 163.738 22.6501Z"/>
<path d="M178.103 33.9622V20.7215C178.103 18.8918 178.635 17.4453 179.699 16.3821C180.764 15.3189 182.248 14.7873 184.154 14.7873H190.316V20.1652H186.641C186.221 20.1652 185.874 20.3012 185.602 20.5731C185.354 20.8204 185.231 21.1542 185.231 21.5745V33.9622H178.103Z"/>
<path d="M102.006 66C99.9029 66 98.022 65.5797 96.3638 64.739C94.7304 63.8736 93.4435 62.662 92.5031 61.1043C91.5626 59.5218 91.0924 57.655 91.0924 55.5038V39.5556H98.851V55.5038C98.851 56.2456 98.9748 56.8885 99.2223 57.4325C99.4945 57.9764 99.8657 58.4091 100.336 58.7306C100.806 59.0273 101.363 59.1756 102.006 59.1756C102.65 59.1756 103.207 59.0273 103.677 58.7306C104.147 58.4091 104.506 57.9764 104.754 57.4325C105.026 56.8885 105.162 56.2456 105.162 55.5038V39.5556H112.995V55.5038C112.995 56.2456 113.119 56.8885 113.366 57.4325C113.614 57.9764 113.972 58.4091 114.443 58.7306C114.938 59.0273 115.507 59.1756 116.15 59.1756C116.794 59.1756 117.351 59.0273 117.821 58.7306C118.291 58.4091 118.65 57.9764 118.897 57.4325C119.17 56.8885 119.306 56.2456 119.306 55.5038V39.5556H127.027V55.5038C127.027 57.655 126.557 59.5218 125.617 61.1043C124.701 62.662 123.426 63.8736 121.793 64.739C120.159 65.5797 118.279 66 116.15 66C115.185 66 114.269 65.9011 113.403 65.7033C112.562 65.5055 111.77 65.2211 111.027 64.8502C110.31 64.4794 109.654 64.0219 109.06 63.478C108.466 63.9972 107.798 64.4546 107.055 64.8502C106.337 65.2211 105.558 65.5055 104.716 65.7033C103.875 65.9011 102.972 66 102.006 66Z"/>
<path d="M137.451 66C135.843 66 134.395 65.592 133.108 64.7761C131.821 63.9601 130.806 62.8351 130.064 61.401C129.322 59.9421 128.95 58.2484 128.95 56.3198C128.95 54.2675 129.408 52.4625 130.324 50.9048C131.24 49.3224 132.502 48.0861 134.11 47.1959C135.744 46.3058 137.637 45.8607 139.79 45.8607C141.894 45.8607 143.725 46.2934 145.284 47.1588C146.843 47.9995 148.056 49.1864 148.922 50.7194C149.813 52.2277 150.259 53.9832 150.259 55.986V65.5178H143.502V62.662H143.28C142.958 63.3296 142.525 63.923 141.98 64.4423C141.461 64.9368 140.83 65.32 140.087 65.592C139.345 65.864 138.466 66 137.451 66ZM139.642 59.7691C140.31 59.7691 141.485 59.8214 141.98 59.5C142.5 59.1786 143 58.5 143.5 58C144 57.5 144.02 56.6907 144.02 55.9489C144.02 55.0922 143.871 54.6013 143.574 54.0574C143.302 53.5134 142.74 53.0807 142.22 52.7593C141.725 52.4378 141 52 140 52C139 52 138.417 52.4378 137.897 52.7593C137.377 53.0807 136.969 53.5134 136.672 54.0574C136.4 54.6013 136.263 55.2319 136.263 55.9489C136.263 56.6907 136.4 57.3583 136.672 57.9517C136.969 58.5204 137.377 58.9655 137.897 59.2869C138.417 59.6083 138.998 59.7691 139.642 59.7691Z"/>
<path d="M160.779 66C159.567 66 158.465 65.7033 157.475 65.1099C156.485 64.5164 155.792 63.6634 155.396 62.5507L150.014 46.3058H157.847L160.631 58.8789C160.655 58.9778 160.68 59.0644 160.705 59.1385C160.754 59.188 160.804 59.2127 160.853 59.2127C160.903 59.2127 160.94 59.188 160.965 59.1385C161.014 59.0644 161.051 58.9778 161.076 58.8789L163.86 46.3058H171.545L166.162 62.5507C165.766 63.6634 165.073 64.5164 164.083 65.1099C163.118 65.7033 162.017 66 160.779 66Z"/>
<path d="M182.796 65.5178C180.643 65.5178 178.725 65.147 177.042 64.4052C175.359 63.6634 174.023 62.5878 173.033 61.1784C172.067 59.7443 171.585 58.0012 171.585 55.9489C171.585 53.6989 172.067 51.832 173.033 50.3485C173.998 48.8649 175.248 47.7523 176.782 47.0105C178.341 46.244 179.975 45.8607 181.682 45.8607C183.439 45.8607 185.011 46.2316 186.397 46.9734C187.807 47.6904 188.921 48.7289 189.738 50.0889C190.579 51.4488 191 53.0807 191 54.9846C191 55.4544 190.975 55.9984 190.926 56.6165C190.876 57.2099 190.802 57.7168 190.703 58.1372H178.898C178.997 58.5575 179.183 58.916 179.455 59.2127C179.727 59.4847 180.098 59.6825 180.569 59.8062C181.039 59.9298 181.571 59.9916 182.165 59.9916H189.033V65.5178H182.796ZM178.564 54.2057H184.429C184.429 53.909 184.392 53.6247 184.318 53.3527C184.244 53.0807 184.12 52.8334 183.947 52.6109C183.798 52.3636 183.613 52.1535 183.39 51.9804C183.167 51.7826 182.895 51.6342 182.573 51.5353C182.276 51.4364 181.942 51.387 181.571 51.387C181.101 51.387 180.68 51.4611 180.309 51.6095C179.962 51.7579 179.665 51.9557 179.418 52.2029C179.17 52.4502 178.972 52.7469 178.824 53.0931C178.7 53.4392 178.613 53.8101 178.564 54.2057Z"/>
</mask>
<path d="M39 33.9622V8H54.9628C56.3734 8 57.648 8.29671 58.7864 8.89013C59.9496 9.48356 60.8776 10.3119 61.5706 11.3751C62.2635 12.4383 62.61 13.687 62.61 15.1211C62.61 15.8381 62.4739 16.5304 62.2017 17.198C61.9542 17.8656 61.5953 18.4838 61.1251 19.0525C60.6796 19.5965 60.1476 20.0786 59.5288 20.499C60.2713 20.9193 60.9148 21.4509 61.4592 22.0938C62.0284 22.7119 62.4615 23.4166 62.7585 24.2078C63.0802 24.9744 63.2411 25.7903 63.2411 26.6557C63.2411 28.1145 62.8823 29.4003 62.1646 30.513C61.4716 31.6009 60.5312 32.4539 59.3432 33.0721C58.1553 33.6655 56.8436 33.9622 55.4082 33.9622H39ZM47.0185 27.8796H53.5892C53.9852 27.8796 54.3193 27.7931 54.5915 27.62C54.8638 27.4469 55.0741 27.212 55.2226 26.9153C55.3959 26.5939 55.4825 26.2477 55.4825 25.8769C55.4825 25.506 55.3959 25.1845 55.2226 24.9125C55.0741 24.6158 54.8638 24.3809 54.5915 24.2078C54.3193 24.0348 53.9852 23.9482 53.5892 23.9482H47.0185V27.8796ZM47.0185 18.014H52.6611C53.0324 18.014 53.3541 17.9275 53.6263 17.7544C53.8986 17.5566 54.1089 17.3217 54.2574 17.0497C54.4059 16.753 54.4802 16.4439 54.4802 16.1225C54.4802 15.7763 54.4059 15.4672 54.2574 15.1952C54.1089 14.9233 53.8986 14.7007 53.6263 14.5276C53.3789 14.3546 53.0571 14.268 52.6611 14.268H47.0185V18.014Z" fill="#232323"/>
<path d="M65.0819 33.9622V20.7215C65.0819 18.8918 65.614 17.4453 66.6782 16.3821C67.7423 15.3189 69.2272 14.7873 71.1329 14.7873H77.2952V20.1652H73.6201C73.1994 20.1652 72.8529 20.3012 72.5807 20.5731C72.3332 20.8204 72.2094 21.1542 72.2094 21.5745V33.9622H65.0819Z" fill="#232323"/>
<path d="M88.7583 34.4073C86.8279 34.4073 85.0584 33.987 83.4498 33.1463C81.8659 32.3056 80.5913 31.1311 79.6261 29.6228C78.6857 28.0898 78.2155 26.3343 78.2155 24.3562C78.2155 22.3781 78.6857 20.635 79.6261 19.1267C80.5913 17.6184 81.8782 16.4439 83.4869 15.6032C85.0955 14.7378 86.8651 14.3051 88.7954 14.3051C90.7258 14.3051 92.483 14.7378 94.0669 15.6032C95.6508 16.4439 96.9129 17.6184 97.8534 19.1267C98.7938 20.635 99.264 22.3781 99.264 24.3562C99.264 26.3343 98.7938 28.0898 97.8534 29.6228C96.9129 31.1311 95.6384 32.3056 94.0297 33.1463C92.4458 33.987 90.6887 34.4073 88.7583 34.4073ZM88.7583 28.028C89.4265 28.028 90.0205 27.8673 90.5402 27.5459C91.0599 27.2244 91.4559 26.7917 91.7281 26.2477C92.0251 25.679 92.1736 25.0362 92.1736 24.3191C92.1736 23.6021 92.0251 22.9716 91.7281 22.4276C91.4559 21.8836 91.0599 21.4509 90.5402 21.1295C90.0205 20.808 89.4265 20.6473 88.7583 20.6473C88.0901 20.6473 87.4962 20.808 86.9764 21.1295C86.4567 21.4509 86.0484 21.8836 85.7514 22.4276C85.4544 22.9716 85.3059 23.6021 85.3059 24.3191C85.3059 25.0362 85.4544 25.679 85.7514 26.2477C86.0484 26.7917 86.4567 27.2244 86.9764 27.5459C87.4962 27.8673 88.0901 28.028 88.7583 28.028Z" fill="#232323"/>
<path d="M109.432 34.4444C108.046 34.4444 106.722 34.1724 105.46 33.6284C104.223 33.0597 103.208 32.2314 102.416 31.1435C101.649 30.0308 101.265 28.6462 101.265 26.9895V14.7502H108.356V27.6571C108.356 27.8796 108.405 28.0775 108.504 28.2505C108.603 28.3989 108.739 28.5225 108.912 28.6214C109.086 28.7203 109.259 28.7698 109.432 28.7698C109.63 28.7698 109.803 28.7203 109.952 28.6214C110.1 28.5225 110.224 28.3989 110.323 28.2505C110.422 28.0775 110.472 27.8796 110.472 27.6571V21.76C110.472 20.1281 110.855 18.7558 111.622 17.6431C112.414 16.5304 113.429 15.7021 114.666 15.1582C115.929 14.5895 117.265 14.3051 118.676 14.3051C120.111 14.3051 121.448 14.5895 122.685 15.1582C123.922 15.7021 124.925 16.5304 125.692 17.6431C126.484 18.7558 126.88 20.1281 126.88 21.76V27.6571C126.88 27.8796 126.929 28.0775 127.028 28.2505C127.127 28.3989 127.263 28.5225 127.437 28.6214C127.61 28.7203 127.783 28.7698 127.956 28.7698C128.154 28.7698 128.328 28.7203 128.476 28.6214C128.649 28.5225 128.785 28.3989 128.884 28.2505C128.983 28.0775 129.033 27.8796 129.033 27.6571V14.7502H136.161V26.9895C136.161 28.6462 135.765 30.0308 134.973 31.1435C134.205 32.2314 133.191 33.0597 131.929 33.6284C130.691 34.1724 129.367 34.4444 127.956 34.4444C126.57 34.4444 125.246 34.1724 123.984 33.6284C122.747 33.0597 121.732 32.2314 120.94 31.1435C120.148 30.0308 119.752 28.6462 119.752 26.9895V21.0924C119.752 20.8451 119.703 20.6473 119.604 20.499C119.505 20.3259 119.369 20.1899 119.195 20.091C119.047 19.9921 118.874 19.9426 118.676 19.9426C118.502 19.9426 118.329 19.9921 118.156 20.091C117.983 20.1899 117.847 20.3259 117.748 20.499C117.649 20.6473 117.599 20.8451 117.599 21.0924V26.9895C117.599 28.6462 117.203 30.0308 116.411 31.1435C115.644 32.2314 114.629 33.0597 113.367 33.6284C112.13 34.1724 110.818 34.4444 109.432 34.4444Z" fill="#232323"/>
<path d="M138.588 33.9622V28.9181H147.572C147.77 28.9181 147.931 28.8811 148.054 28.8069C148.178 28.708 148.277 28.5967 148.351 28.4731C148.426 28.3247 148.463 28.1764 148.463 28.028C148.463 27.8796 148.426 27.7437 148.351 27.62C148.277 27.4717 148.178 27.3604 148.054 27.2862C147.931 27.212 147.77 27.175 147.572 27.175H144.676C143.414 27.175 142.263 26.9648 141.224 26.5444C140.184 26.0994 139.355 25.4194 138.736 24.5046C138.143 23.565 137.846 22.3658 137.846 20.9069C137.846 19.7695 138.118 18.7434 138.662 17.8286C139.231 16.889 139.999 16.1472 140.964 15.6032C141.929 15.0345 142.993 14.7502 144.156 14.7502H153.92V19.7943H145.827C145.579 19.7943 145.369 19.8808 145.196 20.0539C145.047 20.227 144.973 20.4248 144.973 20.6473C144.973 20.8698 145.047 21.0677 145.196 21.2407C145.369 21.4138 145.579 21.5004 145.827 21.5004H148.5C149.935 21.5004 151.173 21.7229 152.212 22.168C153.276 22.5883 154.093 23.2559 154.662 24.1708C155.231 25.0856 155.516 26.2725 155.516 27.7313C155.516 28.8687 155.219 29.9072 154.625 30.8468C154.056 31.7863 153.289 32.5405 152.323 33.1092C151.358 33.6779 150.269 33.9622 149.057 33.9622H138.588Z" fill="#232323"/>
<path d="M167.97 33.9622C165.817 33.9622 163.899 33.5913 162.216 32.8496C160.533 32.1078 159.197 31.0322 158.207 29.6228C157.242 28.1887 156.759 26.4455 156.759 24.3933C156.759 22.1432 157.242 20.2764 158.207 18.7929C159.172 17.3093 160.422 16.1966 161.956 15.4549C163.515 14.6884 165.149 14.3051 166.856 14.3051C168.613 14.3051 170.185 14.676 171.571 15.4178C172.982 16.1348 174.095 17.1733 174.912 18.5332C175.753 19.8932 176.174 21.5251 176.174 23.429C176.174 23.8988 176.149 24.4427 176.1 25.0609C176.05 25.6543 175.976 26.1612 175.877 26.5815H164.072C164.171 27.0019 164.357 27.3604 164.629 27.6571C164.901 27.9291 165.272 28.1269 165.743 28.2505C166.213 28.3742 166.745 28.436 167.339 28.436H174.207V33.9622H167.97ZM163.738 22.6501H169.603C169.603 22.3534 169.566 22.0691 169.492 21.7971C169.418 21.5251 169.294 21.2778 169.121 21.0553C168.972 20.808 168.787 20.5979 168.564 20.4248C168.341 20.227 168.069 20.0786 167.747 19.9797C167.45 19.8808 167.116 19.8314 166.745 19.8314C166.275 19.8314 165.854 19.9055 165.483 20.0539C165.136 20.2022 164.839 20.4001 164.592 20.6473C164.344 20.8946 164.146 21.1913 163.998 21.5374C163.874 21.8836 163.788 22.2545 163.738 22.6501Z" fill="#232323"/>
<path d="M178.103 33.9622V20.7215C178.103 18.8918 178.635 17.4453 179.699 16.3821C180.764 15.3189 182.248 14.7873 184.154 14.7873H190.316V20.1652H186.641C186.221 20.1652 185.874 20.3012 185.602 20.5731C185.354 20.8204 185.231 21.1542 185.231 21.5745V33.9622H178.103Z" fill="#232323"/>
<path d="M102.006 66C99.9029 66 98.022 65.5797 96.3638 64.739C94.7304 63.8736 93.4435 62.662 92.5031 61.1043C91.5626 59.5218 91.0924 57.655 91.0924 55.5038V39.5556H98.851V55.5038C98.851 56.2456 98.9748 56.8885 99.2223 57.4325C99.4945 57.9764 99.8657 58.4091 100.336 58.7306C100.806 59.0273 101.363 59.1756 102.006 59.1756C102.65 59.1756 103.207 59.0273 103.677 58.7306C104.147 58.4091 104.506 57.9764 104.754 57.4325C105.026 56.8885 105.162 56.2456 105.162 55.5038V39.5556H112.995V55.5038C112.995 56.2456 113.119 56.8885 113.366 57.4325C113.614 57.9764 113.972 58.4091 114.443 58.7306C114.938 59.0273 115.507 59.1756 116.15 59.1756C116.794 59.1756 117.351 59.0273 117.821 58.7306C118.291 58.4091 118.65 57.9764 118.897 57.4325C119.17 56.8885 119.306 56.2456 119.306 55.5038V39.5556H127.027V55.5038C127.027 57.655 126.557 59.5218 125.617 61.1043C124.701 62.662 123.426 63.8736 121.793 64.739C120.159 65.5797 118.279 66 116.15 66C115.185 66 114.269 65.9011 113.403 65.7033C112.562 65.5055 111.77 65.2211 111.027 64.8502C110.31 64.4794 109.654 64.0219 109.06 63.478C108.466 63.9972 107.798 64.4546 107.055 64.8502C106.337 65.2211 105.558 65.5055 104.716 65.7033C103.875 65.9011 102.972 66 102.006 66Z" fill="#232323"/>
<path d="M137.451 66C135.843 66 134.395 65.592 133.108 64.7761C131.821 63.9601 130.806 62.8351 130.064 61.401C129.322 59.9421 128.95 58.2484 128.95 56.3198C128.95 54.2675 129.408 52.4625 130.324 50.9048C131.24 49.3224 132.502 48.0861 134.11 47.1959C135.744 46.3058 137.637 45.8607 139.79 45.8607C141.894 45.8607 143.725 46.2934 145.284 47.1588C146.843 47.9995 148.056 49.1864 148.922 50.7194C149.813 52.2277 150.259 53.9832 150.259 55.986V65.5178H143.502V62.662H143.28C142.958 63.3296 142.525 63.923 141.98 64.4423C141.461 64.9368 140.83 65.32 140.087 65.592C139.345 65.864 138.466 66 137.451 66ZM139.642 59.7691C140.31 59.7691 141.485 59.8214 141.98 59.5C142.5 59.1786 143 58.5 143.5 58C144 57.5 144.02 56.6907 144.02 55.9489C144.02 55.0922 143.871 54.6013 143.574 54.0574C143.302 53.5134 142.74 53.0807 142.22 52.7593C141.725 52.4378 141 52 140 52C139 52 138.417 52.4378 137.897 52.7593C137.377 53.0807 136.969 53.5134 136.672 54.0574C136.4 54.6013 136.263 55.2319 136.263 55.9489C136.263 56.6907 136.4 57.3583 136.672 57.9517C136.969 58.5204 137.377 58.9655 137.897 59.2869C138.417 59.6083 138.998 59.7691 139.642 59.7691Z" fill="#232323"/>
<path d="M160.779 66C159.567 66 158.465 65.7033 157.475 65.1099C156.485 64.5164 155.792 63.6634 155.396 62.5507L150.014 46.3058H157.847L160.631 58.8789C160.655 58.9778 160.68 59.0644 160.705 59.1385C160.754 59.188 160.804 59.2127 160.853 59.2127C160.903 59.2127 160.94 59.188 160.965 59.1385C161.014 59.0644 161.051 58.9778 161.076 58.8789L163.86 46.3058H171.545L166.162 62.5507C165.766 63.6634 165.073 64.5164 164.083 65.1099C163.118 65.7033 162.017 66 160.779 66Z" fill="#232323"/>
<path d="M182.796 65.5178C180.643 65.5178 178.725 65.147 177.042 64.4052C175.359 63.6634 174.023 62.5878 173.033 61.1784C172.067 59.7443 171.585 58.0012 171.585 55.9489C171.585 53.6989 172.067 51.832 173.033 50.3485C173.998 48.8649 175.248 47.7523 176.782 47.0105C178.341 46.244 179.975 45.8607 181.682 45.8607C183.439 45.8607 185.011 46.2316 186.397 46.9734C187.807 47.6904 188.921 48.7289 189.738 50.0889C190.579 51.4488 191 53.0807 191 54.9846C191 55.4544 190.975 55.9984 190.926 56.6165C190.876 57.2099 190.802 57.7168 190.703 58.1372H178.898C178.997 58.5575 179.183 58.916 179.455 59.2127C179.727 59.4847 180.098 59.6825 180.569 59.8062C181.039 59.9298 181.571 59.9916 182.165 59.9916H189.033V65.5178H182.796ZM178.564 54.2057H184.429C184.429 53.909 184.392 53.6247 184.318 53.3527C184.244 53.0807 184.12 52.8334 183.947 52.6109C183.798 52.3636 183.613 52.1535 183.39 51.9804C183.167 51.7826 182.895 51.6342 182.573 51.5353C182.276 51.4364 181.942 51.387 181.571 51.387C181.101 51.387 180.68 51.4611 180.309 51.6095C179.962 51.7579 179.665 51.9557 179.418 52.2029C179.17 52.4502 178.972 52.7469 178.824 53.0931C178.7 53.4392 178.613 53.8101 178.564 54.2057Z" fill="#232323"/>
<path d="M39 33.9622V8H54.9628C56.3734 8 57.648 8.29671 58.7864 8.89013C59.9496 9.48356 60.8776 10.3119 61.5706 11.3751C62.2635 12.4383 62.61 13.687 62.61 15.1211C62.61 15.8381 62.4739 16.5304 62.2017 17.198C61.9542 17.8656 61.5953 18.4838 61.1251 19.0525C60.6796 19.5965 60.1476 20.0786 59.5288 20.499C60.2713 20.9193 60.9148 21.4509 61.4592 22.0938C62.0284 22.7119 62.4615 23.4166 62.7585 24.2078C63.0802 24.9744 63.2411 25.7903 63.2411 26.6557C63.2411 28.1145 62.8823 29.4003 62.1646 30.513C61.4716 31.6009 60.5312 32.4539 59.3432 33.0721C58.1553 33.6655 56.8436 33.9622 55.4082 33.9622H39ZM47.0185 27.8796H53.5892C53.9852 27.8796 54.3193 27.7931 54.5915 27.62C54.8638 27.4469 55.0741 27.212 55.2226 26.9153C55.3959 26.5939 55.4825 26.2477 55.4825 25.8769C55.4825 25.506 55.3959 25.1845 55.2226 24.9125C55.0741 24.6158 54.8638 24.3809 54.5915 24.2078C54.3193 24.0348 53.9852 23.9482 53.5892 23.9482H47.0185V27.8796ZM47.0185 18.014H52.6611C53.0324 18.014 53.3541 17.9275 53.6263 17.7544C53.8986 17.5566 54.1089 17.3217 54.2574 17.0497C54.4059 16.753 54.4802 16.4439 54.4802 16.1225C54.4802 15.7763 54.4059 15.4672 54.2574 15.1952C54.1089 14.9233 53.8986 14.7007 53.6263 14.5276C53.3789 14.3546 53.0571 14.268 52.6611 14.268H47.0185V18.014Z" stroke="#EDE6DB" stroke-width="6" mask="url(#path-8-outside-1_16_80)"/>
<path d="M65.0819 33.9622V20.7215C65.0819 18.8918 65.614 17.4453 66.6782 16.3821C67.7423 15.3189 69.2272 14.7873 71.1329 14.7873H77.2952V20.1652H73.6201C73.1994 20.1652 72.8529 20.3012 72.5807 20.5731C72.3332 20.8204 72.2094 21.1542 72.2094 21.5745V33.9622H65.0819Z" stroke="#EDE6DB" stroke-width="6" mask="url(#path-8-outside-1_16_80)"/>
<path d="M88.7583 34.4073C86.8279 34.4073 85.0584 33.987 83.4498 33.1463C81.8659 32.3056 80.5913 31.1311 79.6261 29.6228C78.6857 28.0898 78.2155 26.3343 78.2155 24.3562C78.2155 22.3781 78.6857 20.635 79.6261 19.1267C80.5913 17.6184 81.8782 16.4439 83.4869 15.6032C85.0955 14.7378 86.8651 14.3051 88.7954 14.3051C90.7258 14.3051 92.483 14.7378 94.0669 15.6032C95.6508 16.4439 96.9129 17.6184 97.8534 19.1267C98.7938 20.635 99.264 22.3781 99.264 24.3562C99.264 26.3343 98.7938 28.0898 97.8534 29.6228C96.9129 31.1311 95.6384 32.3056 94.0297 33.1463C92.4458 33.987 90.6887 34.4073 88.7583 34.4073ZM88.7583 28.028C89.4265 28.028 90.0205 27.8673 90.5402 27.5459C91.0599 27.2244 91.4559 26.7917 91.7281 26.2477C92.0251 25.679 92.1736 25.0362 92.1736 24.3191C92.1736 23.6021 92.0251 22.9716 91.7281 22.4276C91.4559 21.8836 91.0599 21.4509 90.5402 21.1295C90.0205 20.808 89.4265 20.6473 88.7583 20.6473C88.0901 20.6473 87.4962 20.808 86.9764 21.1295C86.4567 21.4509 86.0484 21.8836 85.7514 22.4276C85.4544 22.9716 85.3059 23.6021 85.3059 24.3191C85.3059 25.0362 85.4544 25.679 85.7514 26.2477C86.0484 26.7917 86.4567 27.2244 86.9764 27.5459C87.4962 27.8673 88.0901 28.028 88.7583 28.028Z" stroke="#EDE6DB" stroke-width="6" mask="url(#path-8-outside-1_16_80)"/>
<path d="M109.432 34.4444C108.046 34.4444 106.722 34.1724 105.46 33.6284C104.223 33.0597 103.208 32.2314 102.416 31.1435C101.649 30.0308 101.265 28.6462 101.265 26.9895V14.7502H108.356V27.6571C108.356 27.8796 108.405 28.0775 108.504 28.2505C108.603 28.3989 108.739 28.5225 108.912 28.6214C109.086 28.7203 109.259 28.7698 109.432 28.7698C109.63 28.7698 109.803 28.7203 109.952 28.6214C110.1 28.5225 110.224 28.3989 110.323 28.2505C110.422 28.0775 110.472 27.8796 110.472 27.6571V21.76C110.472 20.1281 110.855 18.7558 111.622 17.6431C112.414 16.5304 113.429 15.7021 114.666 15.1582C115.929 14.5895 117.265 14.3051 118.676 14.3051C120.111 14.3051 121.448 14.5895 122.685 15.1582C123.922 15.7021 124.925 16.5304 125.692 17.6431C126.484 18.7558 126.88 20.1281 126.88 21.76V27.6571C126.88 27.8796 126.929 28.0775 127.028 28.2505C127.127 28.3989 127.263 28.5225 127.437 28.6214C127.61 28.7203 127.783 28.7698 127.956 28.7698C128.154 28.7698 128.328 28.7203 128.476 28.6214C128.649 28.5225 128.785 28.3989 128.884 28.2505C128.983 28.0775 129.033 27.8796 129.033 27.6571V14.7502H136.161V26.9895C136.161 28.6462 135.765 30.0308 134.973 31.1435C134.205 32.2314 133.191 33.0597 131.929 33.6284C130.691 34.1724 129.367 34.4444 127.956 34.4444C126.57 34.4444 125.246 34.1724 123.984 33.6284C122.747 33.0597 121.732 32.2314 120.94 31.1435C120.148 30.0308 119.752 28.6462 119.752 26.9895V21.0924C119.752 20.8451 119.703 20.6473 119.604 20.499C119.505 20.3259 119.369 20.1899 119.195 20.091C119.047 19.9921 118.874 19.9426 118.676 19.9426C118.502 19.9426 118.329 19.9921 118.156 20.091C117.983 20.1899 117.847 20.3259 117.748 20.499C117.649 20.6473 117.599 20.8451 117.599 21.0924V26.9895C117.599 28.6462 117.203 30.0308 116.411 31.1435C115.644 32.2314 114.629 33.0597 113.367 33.6284C112.13 34.1724 110.818 34.4444 109.432 34.4444Z" stroke="#EDE6DB" stroke-width="6" mask="url(#path-8-outside-1_16_80)"/>
<path d="M138.588 33.9622V28.9181H147.572C147.77 28.9181 147.931 28.8811 148.054 28.8069C148.178 28.708 148.277 28.5967 148.351 28.4731C148.426 28.3247 148.463 28.1764 148.463 28.028C148.463 27.8796 148.426 27.7437 148.351 27.62C148.277 27.4717 148.178 27.3604 148.054 27.2862C147.931 27.212 147.77 27.175 147.572 27.175H144.676C143.414 27.175 142.263 26.9648 141.224 26.5444C140.184 26.0994 139.355 25.4194 138.736 24.5046C138.143 23.565 137.846 22.3658 137.846 20.9069C137.846 19.7695 138.118 18.7434 138.662 17.8286C139.231 16.889 139.999 16.1472 140.964 15.6032C141.929 15.0345 142.993 14.7502 144.156 14.7502H153.92V19.7943H145.827C145.579 19.7943 145.369 19.8808 145.196 20.0539C145.047 20.227 144.973 20.4248 144.973 20.6473C144.973 20.8698 145.047 21.0677 145.196 21.2407C145.369 21.4138 145.579 21.5004 145.827 21.5004H148.5C149.935 21.5004 151.173 21.7229 152.212 22.168C153.276 22.5883 154.093 23.2559 154.662 24.1708C155.231 25.0856 155.516 26.2725 155.516 27.7313C155.516 28.8687 155.219 29.9072 154.625 30.8468C154.056 31.7863 153.289 32.5405 152.323 33.1092C151.358 33.6779 150.269 33.9622 149.057 33.9622H138.588Z" stroke="#EDE6DB" stroke-width="6" mask="url(#path-8-outside-1_16_80)"/>
<path d="M167.97 33.9622C165.817 33.9622 163.899 33.5913 162.216 32.8496C160.533 32.1078 159.197 31.0322 158.207 29.6228C157.242 28.1887 156.759 26.4455 156.759 24.3933C156.759 22.1432 157.242 20.2764 158.207 18.7929C159.172 17.3093 160.422 16.1966 161.956 15.4549C163.515 14.6884 165.149 14.3051 166.856 14.3051C168.613 14.3051 170.185 14.676 171.571 15.4178C172.982 16.1348 174.095 17.1733 174.912 18.5332C175.753 19.8932 176.174 21.5251 176.174 23.429C176.174 23.8988 176.149 24.4427 176.1 25.0609C176.05 25.6543 175.976 26.1612 175.877 26.5815H164.072C164.171 27.0019 164.357 27.3604 164.629 27.6571C164.901 27.9291 165.272 28.1269 165.743 28.2505C166.213 28.3742 166.745 28.436 167.339 28.436H174.207V33.9622H167.97ZM163.738 22.6501H169.603C169.603 22.3534 169.566 22.0691 169.492 21.7971C169.418 21.5251 169.294 21.2778 169.121 21.0553C168.972 20.808 168.787 20.5979 168.564 20.4248C168.341 20.227 168.069 20.0786 167.747 19.9797C167.45 19.8808 167.116 19.8314 166.745 19.8314C166.275 19.8314 165.854 19.9055 165.483 20.0539C165.136 20.2022 164.839 20.4001 164.592 20.6473C164.344 20.8946 164.146 21.1913 163.998 21.5374C163.874 21.8836 163.788 22.2545 163.738 22.6501Z" stroke="#EDE6DB" stroke-width="6" mask="url(#path-8-outside-1_16_80)"/>
<path d="M178.103 33.9622V20.7215C178.103 18.8918 178.635 17.4453 179.699 16.3821C180.764 15.3189 182.248 14.7873 184.154 14.7873H190.316V20.1652H186.641C186.221 20.1652 185.874 20.3012 185.602 20.5731C185.354 20.8204 185.231 21.1542 185.231 21.5745V33.9622H178.103Z" stroke="#EDE6DB" stroke-width="6" mask="url(#path-8-outside-1_16_80)"/>
<path d="M102.006 66C99.9029 66 98.022 65.5797 96.3638 64.739C94.7304 63.8736 93.4435 62.662 92.5031 61.1043C91.5626 59.5218 91.0924 57.655 91.0924 55.5038V39.5556H98.851V55.5038C98.851 56.2456 98.9748 56.8885 99.2223 57.4325C99.4945 57.9764 99.8657 58.4091 100.336 58.7306C100.806 59.0273 101.363 59.1756 102.006 59.1756C102.65 59.1756 103.207 59.0273 103.677 58.7306C104.147 58.4091 104.506 57.9764 104.754 57.4325C105.026 56.8885 105.162 56.2456 105.162 55.5038V39.5556H112.995V55.5038C112.995 56.2456 113.119 56.8885 113.366 57.4325C113.614 57.9764 113.972 58.4091 114.443 58.7306C114.938 59.0273 115.507 59.1756 116.15 59.1756C116.794 59.1756 117.351 59.0273 117.821 58.7306C118.291 58.4091 118.65 57.9764 118.897 57.4325C119.17 56.8885 119.306 56.2456 119.306 55.5038V39.5556H127.027V55.5038C127.027 57.655 126.557 59.5218 125.617 61.1043C124.701 62.662 123.426 63.8736 121.793 64.739C120.159 65.5797 118.279 66 116.15 66C115.185 66 114.269 65.9011 113.403 65.7033C112.562 65.5055 111.77 65.2211 111.027 64.8502C110.31 64.4794 109.654 64.0219 109.06 63.478C108.466 63.9972 107.798 64.4546 107.055 64.8502C106.337 65.2211 105.558 65.5055 104.716 65.7033C103.875 65.9011 102.972 66 102.006 66Z" stroke="#EDE6DB" stroke-width="6" mask="url(#path-8-outside-1_16_80)"/>
<path d="M137.451 66C135.843 66 134.395 65.592 133.108 64.7761C131.821 63.9601 130.806 62.8351 130.064 61.401C129.322 59.9421 128.95 58.2484 128.95 56.3198C128.95 54.2675 129.408 52.4625 130.324 50.9048C131.24 49.3224 132.502 48.0861 134.11 47.1959C135.744 46.3058 137.637 45.8607 139.79 45.8607C141.894 45.8607 143.725 46.2934 145.284 47.1588C146.843 47.9995 148.056 49.1864 148.922 50.7194C149.813 52.2277 150.259 53.9832 150.259 55.986V65.5178H143.502V62.662H143.28C142.958 63.3296 142.525 63.923 141.98 64.4423C141.461 64.9368 140.83 65.32 140.087 65.592C139.345 65.864 138.466 66 137.451 66ZM139.642 59.7691C140.31 59.7691 141.485 59.8214 141.98 59.5C142.5 59.1786 143 58.5 143.5 58C144 57.5 144.02 56.6907 144.02 55.9489C144.02 55.0922 143.871 54.6013 143.574 54.0574C143.302 53.5134 142.74 53.0807 142.22 52.7593C141.725 52.4378 141 52 140 52C139 52 138.417 52.4378 137.897 52.7593C137.377 53.0807 136.969 53.5134 136.672 54.0574C136.4 54.6013 136.263 55.2319 136.263 55.9489C136.263 56.6907 136.4 57.3583 136.672 57.9517C136.969 58.5204 137.377 58.9655 137.897 59.2869C138.417 59.6083 138.998 59.7691 139.642 59.7691Z" stroke="#EDE6DB" stroke-width="6" mask="url(#path-8-outside-1_16_80)"/>
<path d="M160.779 66C159.567 66 158.465 65.7033 157.475 65.1099C156.485 64.5164 155.792 63.6634 155.396 62.5507L150.014 46.3058H157.847L160.631 58.8789C160.655 58.9778 160.68 59.0644 160.705 59.1385C160.754 59.188 160.804 59.2127 160.853 59.2127C160.903 59.2127 160.94 59.188 160.965 59.1385C161.014 59.0644 161.051 58.9778 161.076 58.8789L163.86 46.3058H171.545L166.162 62.5507C165.766 63.6634 165.073 64.5164 164.083 65.1099C163.118 65.7033 162.017 66 160.779 66Z" stroke="#EDE6DB" stroke-width="6" mask="url(#path-8-outside-1_16_80)"/>
<path d="M182.796 65.5178C180.643 65.5178 178.725 65.147 177.042 64.4052C175.359 63.6634 174.023 62.5878 173.033 61.1784C172.067 59.7443 171.585 58.0012 171.585 55.9489C171.585 53.6989 172.067 51.832 173.033 50.3485C173.998 48.8649 175.248 47.7523 176.782 47.0105C178.341 46.244 179.975 45.8607 181.682 45.8607C183.439 45.8607 185.011 46.2316 186.397 46.9734C187.807 47.6904 188.921 48.7289 189.738 50.0889C190.579 51.4488 191 53.0807 191 54.9846C191 55.4544 190.975 55.9984 190.926 56.6165C190.876 57.2099 190.802 57.7168 190.703 58.1372H178.898C178.997 58.5575 179.183 58.916 179.455 59.2127C179.727 59.4847 180.098 59.6825 180.569 59.8062C181.039 59.9298 181.571 59.9916 182.165 59.9916H189.033V65.5178H182.796ZM178.564 54.2057H184.429C184.429 53.909 184.392 53.6247 184.318 53.3527C184.244 53.0807 184.12 52.8334 183.947 52.6109C183.798 52.3636 183.613 52.1535 183.39 51.9804C183.167 51.7826 182.895 51.6342 182.573 51.5353C182.276 51.4364 181.942 51.387 181.571 51.387C181.101 51.387 180.68 51.4611 180.309 51.6095C179.962 51.7579 179.665 51.9557 179.418 52.2029C179.17 52.4502 178.972 52.7469 178.824 53.0931C178.7 53.4392 178.613 53.8101 178.564 54.2057Z" stroke="#EDE6DB" stroke-width="6" mask="url(#path-8-outside-1_16_80)"/>
<rect x="47" y="18" width="2" height="16" fill="#EDE6DB"/>
<rect x="142" y="56" width="2" height="11" fill="#EDE6DB"/>
</g>
<defs>
<clipPath id="clip0_16_80">
<rect width="199" height="75" fill="white"/>
</clipPath>
</defs>
</svg>
